#!OML:ASF Y:\EmotionMaleHayes\Project 1\Capture day 1\Session 1\Male1.ASF
:FULLY-SPECIFIED
:DEGREES
170
root -29.1146 16.9923 1.04805 -3.19508 84.4727 1.67555
lowerback 6.65306 2.08908 -2.39554
upperback 6.18291 2.87157 0.358289
thorax 2.53239 1.43042 1.58695
lowerneck -25.3134 3.2897 4.71656
upperneck 20.4539 3.60433 -2.99324
head 10.9197 1.64099 -1.26459
rclavicle 1.25421e-014 -5.59082e-015
rhumerus -28.7499 13.367 -93.8899
rradius 29.8937
rwrist -0.0550409
rhand -8.27049 -32.8124
rfingers 7.12502
rthumb 17.6486 -62.0314
lclavicle 1.25421e-014 -5.59082e-015
lhumerus -23.3308 -8.75977 90.4951
lradius 20.4657
lwrist -16.0105
lhand -17.3251 -25.627
lfingers 7.12502
lthumb 8.92161 4.16441
rfemur 12.4035 -3.87587 10.5366
rtibia 3.80585
rfoot -15.4433 -6.06469
rtoes 5.90905
lfemur 8.0655 3.05228 -11.9604
ltibia 13.1043
lfoot -16.6711 14.9453
ltoes -17.3071
171
root -29.1194 16.9912 1.04705 -2.95388 84.4166 1.83787
lowerback 6.59822 2.10654 -2.32708
upperback 6.22528 2.90103 0.366296
thorax 2.60829 1.44666 1.55914
lowerneck -25.3421 3.21876 4.84336
upperneck 20.216 3.48869 -3.1557
head 10.8375 1.57565 -1.36338
rclavicle 3.63093e-015 -2.98177e-016
rhumerus -28.7016 13.0343 -93.7193
rradius 29.9876
rwrist -0.19138
rhand -8.13717 -32.9234
rfingers 7.12502
rthumb 17.7769 -62.1309
lclavicle 3.63093e-015 -2.98177e-016
lhumerus -23.2925 -8.88216 90.5829
lradius 20.5635
lwrist -15.7599
lhand -17.6111 -25.4502
lfingers 7.12502
lthumb 8.64564 4.35281
rfemur 12.3048 -4.03288 10.4672
rtibia 3.72967
rfoot -15.3552 -5.89298
rtoes 5.31775
lfemur 7.93635 2.88532 -12.0914
ltibia 13.1697
lfoot -16.8344 15.1578
ltoes -17.2466
172
root -29.1231 16.9919 1.04439 -2.9554 84.3846 1.81431
lowerback 6.59891 2.10367 -2.21841
upperback 6.28103 2.90513 0.36518
thorax 2.67079 1.45258 1.4988
lowerneck -25.3575 3.19423 4.99798
upperneck 19.9703 3.4086 -3.24617
head 10.7507 1.53795 -1.43418
rclavicle -8.64247e-015 -9.75287e-016
rhumerus -28.6743 12.8947 -93.6361
rradius 30.0498
rwrist -0.412135
rhand -8.32591 -32.7271
rfingers 7.12502
rthumb 17.5952 -61.9509
lclavicle -8.64247e-015 -9.75287e-016
lhumerus -23.2621 -8.52967 90.5625
lradius 20.592
lwrist -16.023
lhand -17.865 -25.384
lfingers 7.12502
lthumb 8.40064 4.42892
rfemur 12.2846 -4.35624 10.3257
rtibia 3.63709
rfoot -15.1751 -5.54847
rtoes 5.05752
lfemur 7.84441 2.93173 -12.108
ltibia 13.2963
lfoot -16.9357 15.1179
ltoes -17.412
173
root -29.1272 16.9928 1.04324 -3.97038 84.3559 0.816324
lowerback 6.68768 2.08377 -2.07186
upperback 6.31836 2.88433 0.431992
thorax 2.66444 1.44698 1.48417
lowerneck -25.397 3.21553 4.99863
upperneck 19.8169 3.41932 -3.20815
head 10.7009 1.54618 -1.41795
rclavicle -1.29521e-015 5.11871e-015
rhumerus -28.6331 12.8377 -93.509
rradius 29.9735
rwrist -0.522286
rhand -8.56401 -32.2948
rfingers 7.12502
rthumb 17.3661 -61.539
lclavicle -1.29521e-015 5.11871e-015
lhumerus -23.2934 -8.00554 90.607
lradius 20.5535
lwrist -16.4282
lhand -17.8426 -25.4369
lfingers 7.12502
lthumb 8.42224 4.3752
rfemur 12.386 -4.39448 10.4233
rtibia 3.4529
rfoot -15.0696 -5.47498
rtoes 5.40664
lfemur 7.82384 2.93928 -11.9932
ltibia 13.3738
lfoot -16.9663 15.0507
ltoes -17.1438
174
root -29.1317 16.9937 1.04263 -2.22483 84.3782 2.57465
lowerback 6.7783 2.04587 -2.21325
upperback 6.33206 2.82744 0.427602
thorax 2.62522 1.41451 1.55782
lowerneck -25.3766 3.26107 4.89844
upperneck 19.6216 3.47412 -3.05414
head 10.6227 1.58208 -1.3363
rclavicle -2.01332e-014 5.06901e-015
rhumerus -28.5886 12.7118 -93.3279
rradius 29.9082
rwrist -0.346793
rhand -8.16926 -32.2753
rfingers 7.12502
rthumb 17.746 -61.4856
lclavicle -2.01332e-014 5.06901e-015
lhumerus -23.3775 -7.74663 90.7105
lradius 20.5492
lwrist -16.4849
lhand -17.5192 -25.6719
lfingers 7.12502
lthumb 8.73429 4.12743
rfemur 12.4931 -4.37129 10.2171
rtibia 3.28491
rfoot -15.0409 -5.444
rtoes 5.96969
lfemur 7.77738 2.9209 -12.2259
ltibia 13.4387
lfoot -17.006 15.0319
ltoes -16.959
175
root -29.1359 16.9927 1.04086 0.839645 84.3811 5.5897
lowerback 6.75799 2.00419 -2.43056
upperback 6.33943 2.76472 0.356042
thorax 2.64155 1.37652 1.6094
lowerneck -25.2174 3.3103 4.90624
upperneck 19.2703 3.51885 -2.98659
head 10.4665 1.61154 -1.30637
rclavicle 1.59525e-014 8.02593e-015
rhumerus -28.5268 12.8028 -93.2911
rradius 29.8712
rwrist -0.443437
rhand -8.07856 -32.5026
rfingers 7.12502
rthumb 17.8332 -61.7049
lclavicle 1.59525e-014 8.02593e-015
lhumerus -23.4406 -7.53894 90.7474
lradius 20.5658
lwrist -16.4512
lhand -17.6788 -25.8805
lfingers 7.12502
lthumb 8.58027 3.92515
rfemur 12.4953 -4.48247 9.80307
rtibia 3.1676
rfoot -14.8426 -5.41692
rtoes 5.0202
lfemur 7.66864 2.93802 -12.6196
ltibia 13.4873
lfoot -16.9836 15.0924
ltoes -17.0008
176
root -29.1408 16.9906 1.04033 1.09213 84.3129 5.74769
lowerback 6.66885 1.97982 -2.37349
upperback 6.35431 2.73697 0.353496
thorax 2.71008 1.36346 1.58021
lowerneck -25.0395 3.29443 4.89131
upperneck 18.9163 3.48132 -2.90924
head 10.3026 1.6031 -1.28316
rclavicle 3.53464e-015 2.5345e-015
rhumerus -28.4745 13.1277 -93.3706
rradius 29.844
rwrist -0.873547
rhand -8.63573 -32.7847
rfingers 7.12502
rthumb 17.2971 -62.035
lclavicle 3.53464e-015 2.5345e-015
lhumerus -23.5105 -7.44149 90.7963
lradius 20.6588
lwrist -16.3139
lhand -18.4399 -25.7729
lfingers 7.12502
lthumb 7.84581 4.06149
rfemur 12.423 -4.602 9.73695
rtibia 3.02652
rfoot -14.5528 -5.46874
rtoes 3.22332
lfemur 7.48431 3.19045 -12.5597
ltibia 13.6401
lfoot -16.9205 14.9995
ltoes -17.2029
177
root -29.1495 16.991 1.04273 -0.354551 84.2152 4.28793
lowerback 6.72442 1.98098 -2.23456
upperback 6.39074 2.74392 0.430113
thorax 2.71902 1.37085 1.58008
lowerneck -25.0165 3.2814 4.83497
upperneck 18.6691 3.44868 -2.79441
head 10.204 1.5972 -1.23808
rclavicle -7.95139e-016 -3.23025e-015
rhumerus -28.4149 13.3433 -93.3341
rradius 29.8358
rwrist -0.998487
rhand -8.8435 -33.1776
rfingers 7.12502
rthumb 17.0971 -62.4453
lclavicle -7.95139e-016 -3.23025e-015
lhumerus -23.5833 -7.51895 90.9359
lradius 20.7862
lwrist -16.133
lhand -17.4159 -25.9337
lfingers 7.12502
lthumb 8.83397 3.86139
rfemur 12.3615 -4.4882 9.96738
rtibia 2.96873
rfoot -14.5337 -5.55055
rtoes 3.30771
lfemur 7.38467 3.44364 -12.2551
ltibia 13.8057
lfoot -16.9437 14.851
ltoes -17.4323
178
root -29.1572 16.9923 1.04402 0.177244 84.1305 4.88325
lowerback 6.87789 1.98296 -2.33072
upperback 6.41312 2.74009 0.490558
thorax 2.65101 1.36588 1.6907
lowerneck -24.9609 3.33358 4.81752
upperneck 18.478 3.52442 -2.79535
head 10.128 1.63014 -1.22381
rclavicle -9.29318e-015 3.8763e-015
rhumerus -28.3296 13.3609 -93.1594
rradius 29.7146
rwrist -0.717972
rhand -8.80013 -33.2177
rfingers 7.12502
rthumb 17.1388 -62.4818
lclavicle -9.29318e-015 3.8763e-015
lhumerus -23.7118 -7.67957 91.1795
lradius 20.8812
lwrist -15.8832
lhand -18.1062 -25.9314
lfingers 7.12502
lthumb 8.16783 3.89075
rfemur 12.3684 -4.33334 9.94348
rtibia 3.02731
rfoot -14.688 -5.50098
rtoes 4.04124
lfemur 7.49322 3.31361 -12.365
ltibia 13.6965
lfoot -16.9999 14.9917
ltoes -17.453
179
root -29.1627 16.993 1.04484 -0.281288 84.0497 4.38651
lowerback 6.91304 1.94903 -2.27485
upperback 6.3946 2.69405 0.559986
thorax 2.61317 1.34356 1.73141
lowerneck -24.8794 3.38439 4.78753
upperneck 18.3766 3.60698 -2.7955
head 10.08 1.66628 -1.20651
rclavicle -4.35338e-014 1.17283e-014
rhumerus -28.2068 13.2801 -92.9607
rradius 29.4232
rwrist -0.145168
rhand -8.72333 -32.8983
rfingers 7.12502
rthumb 17.2127 -62.1559
lclavicle -4.35338e-014 1.17283e-014
lhumerus -23.8863 -7.99115 91.4252
lradius 21.0158
lwrist -15.3372
lhand -17.2087 -25.8494
lfingers 7.12502
lthumb 9.03401 3.9372
rfemur 12.2693 -4.35213 10.0147
rtibia 3.08871
rfoot -14.7058 -5.43469
rtoes 3.50942
lfemur 7.49892 3.20338 -12.3521
ltibia 13.6131
lfoot -17.1046 15.1542
ltoes -17.082
180
root -29.1704 16.9943 1.0493 -2.34413 83.9362 2.23702
lowerback 6.92999 1.93518 -2.05305
upperback 6.37723 2.6824 0.639319
thorax 2.59108 1.34402 1.68873
lowerneck -24.9032 3.4056 4.81141
upperneck 18.3396 3.61169 -2.74133
head 10.0704 1.67642 -1.19007
rclavicle -1.80646e-014 6.4605e-015
rhumerus -28.0259 13.1048 -92.7823
rradius 29.1057
rwrist 0.545908
rhand -8.53533 -32.9085
rfingers 7.12502
rthumb 17.3937 -62.1502
lclavicle -1.80646e-014 6.4605e-015
lhumerus -24.0254 -8.37575 91.5902
lradius 21.1904
lwrist -14.7612
lhand -16.9006 -25.4321
lfingers 7.12502
lthumb 9.33126 4.3414
rfemur 12.0826 -4.22605 10.383
rtibia 3.12896
rfoot -14.6773 -5.63157
rtoes 2.8567
lfemur 7.36475 3.30752 -12.0186
ltibia 13.7282
lfoot -17.2158 15.1796
ltoes -16.9534
181
root -29.1754 16.9978 1.0547 -1.0781 83.8743 3.54427
lowerback 7.01668 1.98182 -2.21994
upperback 6.43345 2.73952 0.622985
thorax 2.59369 1.36806 1.76039
lowerneck -24.9435 3.37903 4.86835
upperneck 18.2185 3.53233 -2.67585
head 10.0303 1.65111 -1.18822
rclavicle -6.75868e-015 5.86415e-015
rhumerus -27.822 12.924 -92.6469
rradius 28.9051
rwrist 0.917832
rhand -8.68145 -33.0468
rfingers 7.12502
rthumb 17.2531 -62.3009
lclavicle -6.75868e-015 5.86415e-015
lhumerus -24.0411 -8.69782 91.7676
lradius 21.2306
lwrist -14.4053
lhand -17.4614 -25.0746
lfingers 7.12502
lthumb 8.79015 4.72238
rfemur 12.0862 -4.05735 10.2925
rtibia 3.13427
rfoot -14.7159 -5.80557
rtoes 2.84596
lfemur 7.36528 3.3451 -12.1467
ltibia 13.7868
lfoot -17.2302 15.1828
ltoes -17.2269
182
root -29.1765 17.0011 1.05803 0.762571 83.8049 5.40727
lowerback 7.01751 2.04541 -2.41094
upperback 6.51736 2.82173 0.573416
thorax 2.67206 1.40339 1.81412
lowerneck -25.0328 3.29651 4.97047
upperneck 18.0803 3.38564 -2.73188
head 9.99323 1.58233 -1.24723
rclavicle 4.00054e-015 -4.57205e-015
rhumerus -27.6283 12.733 -92.5328
rradius 28.7933
rwrist 1.16669
rhand -8.87665 -32.9932
rfingers 7.12502
rthumb 17.0652 -62.2636
lclavicle 4.00054e-015 -4.57205e-015
lhumerus -23.9 -8.91419 91.9058
lradius 21.0879
lwrist -14.1228
lhand -18.0763 -25.0675
lfingers 7.12502
lthumb 8.19666 4.75354
rfemur 12.0952 -3.97231 10.0866
rtibia 3.13135
rfoot -14.7479 -5.78071
rtoes 3.32043
lfemur 7.41349 3.37288 -12.3656
ltibia 13.7303
lfoot -17.2218 15.1494
ltoes -16.9293
